<?xml version="1.0" encoding="UTF-8" standalone="no"?>
<!DOCTYPE svg PUBLIC "-//W3C//DTD SVG 1.1//EN"
 "http://www.w3.org/Graphics/SVG/1.1/DTD/svg11.dtd">
<!-- Generated by graphviz version 2.26.3 (20100126.1600)
 -->
<!-- Title: G Pages: 1 -->
<svg width="1482pt" height="2019pt"
 viewBox="0.00 0.00 1482.00 2019.39" xmlns="http://www.w3.org/2000/svg" xmlns:xlink="http://www.w3.org/1999/xlink">
<g id="graph1" class="graph" transform="scale(1 1) rotate(0) translate(4 2015.39)">
<title>G</title>
<polygon fill="white" stroke="white" points="-4,5 -4,-2015.39 1479,-2015.39 1479,5 -4,5"/>
<g id="graph2" class="cluster"><title>cluster_PhlyRestfully</title>
<polyline fill="none" stroke="gray" points="166,-677.386 1454,-677.386 "/>
<path fill="none" stroke="gray" d="M1454,-677.386C1460,-677.386 1466,-683.386 1466,-689.386"/>
<polyline fill="none" stroke="gray" points="1466,-689.386 1466,-1991.39 "/>
<path fill="none" stroke="gray" d="M1466,-1991.39C1466,-1997.39 1460,-2003.39 1454,-2003.39"/>
<polyline fill="none" stroke="gray" points="1454,-2003.39 166,-2003.39 "/>
<path fill="none" stroke="gray" d="M166,-2003.39C160,-2003.39 154,-1997.39 154,-1991.39"/>
<polyline fill="none" stroke="gray" points="154,-1991.39 154,-689.386 "/>
<path fill="none" stroke="gray" d="M154,-689.386C154,-683.386 160,-677.386 166,-677.386"/>
<text text-anchor="middle" x="810" y="-1989.49" font-family="Times Roman,serif" font-size="11.00" fill="gray">PhlyRestfully</text>
</g>
<g id="graph3" class="cluster"><title>cluster_PhlyRestfully\Exception</title>
<polyline fill="none" stroke="gray" points="174,-1683.39 1446,-1683.39 "/>
<path fill="none" stroke="gray" d="M1446,-1683.39C1452,-1683.39 1458,-1689.39 1458,-1695.39"/>
<polyline fill="none" stroke="gray" points="1458,-1695.39 1458,-1961.39 "/>
<path fill="none" stroke="gray" d="M1458,-1961.39C1458,-1967.39 1452,-1973.39 1446,-1973.39"/>
<polyline fill="none" stroke="gray" points="1446,-1973.39 174,-1973.39 "/>
<path fill="none" stroke="gray" d="M174,-1973.39C168,-1973.39 162,-1967.39 162,-1961.39"/>
<polyline fill="none" stroke="gray" points="162,-1961.39 162,-1695.39 "/>
<path fill="none" stroke="gray" d="M162,-1695.39C162,-1689.39 168,-1683.39 174,-1683.39"/>
<text text-anchor="middle" x="810" y="-1959.49" font-family="Times Roman,serif" font-size="11.00" fill="gray">Exception</text>
</g>
<g id="graph4" class="cluster"><title>cluster_PhlyRestfully\Factory</title>
<polyline fill="none" stroke="gray" points="1265,-1447.39 1443,-1447.39 "/>
<path fill="none" stroke="gray" d="M1443,-1447.39C1449,-1447.39 1455,-1453.39 1455,-1459.39"/>
<polyline fill="none" stroke="gray" points="1455,-1459.39 1455,-1509.39 "/>
<path fill="none" stroke="gray" d="M1455,-1509.39C1455,-1515.39 1449,-1521.39 1443,-1521.39"/>
<polyline fill="none" stroke="gray" points="1443,-1521.39 1265,-1521.39 "/>
<path fill="none" stroke="gray" d="M1265,-1521.39C1259,-1521.39 1253,-1515.39 1253,-1509.39"/>
<polyline fill="none" stroke="gray" points="1253,-1509.39 1253,-1459.39 "/>
<path fill="none" stroke="gray" d="M1253,-1459.39C1253,-1453.39 1259,-1447.39 1265,-1447.39"/>
<text text-anchor="middle" x="1354" y="-1507.49" font-family="Times Roman,serif" font-size="11.00" fill="gray">Factory</text>
</g>
<g id="graph5" class="cluster"><title>cluster_PhlyRestfully\Listener</title>
<polyline fill="none" stroke="gray" points="1262,-1211.39 1446,-1211.39 "/>
<path fill="none" stroke="gray" d="M1446,-1211.39C1452,-1211.39 1458,-1217.39 1458,-1223.39"/>
<polyline fill="none" stroke="gray" points="1458,-1223.39 1458,-1327.39 "/>
<path fill="none" stroke="gray" d="M1458,-1327.39C1458,-1333.39 1452,-1339.39 1446,-1339.39"/>
<polyline fill="none" stroke="gray" points="1446,-1339.39 1262,-1339.39 "/>
<path fill="none" stroke="gray" d="M1262,-1339.39C1256,-1339.39 1250,-1333.39 1250,-1327.39"/>
<polyline fill="none" stroke="gray" points="1250,-1327.39 1250,-1223.39 "/>
<path fill="none" stroke="gray" d="M1250,-1223.39C1250,-1217.39 1256,-1211.39 1262,-1211.39"/>
<text text-anchor="middle" x="1354" y="-1325.49" font-family="Times Roman,serif" font-size="11.00" fill="gray">Listener</text>
</g>
<g id="graph6" class="cluster"><title>cluster_PhlyRestfully\Plugin</title>
<polyline fill="none" stroke="gray" points="1322,-1083.39 1386,-1083.39 "/>
<path fill="none" stroke="gray" d="M1386,-1083.39C1392,-1083.39 1398,-1089.39 1398,-1095.39"/>
<polyline fill="none" stroke="gray" points="1398,-1095.39 1398,-1145.39 "/>
<path fill="none" stroke="gray" d="M1398,-1145.39C1398,-1151.39 1392,-1157.39 1386,-1157.39"/>
<polyline fill="none" stroke="gray" points="1386,-1157.39 1322,-1157.39 "/>
<path fill="none" stroke="gray" d="M1322,-1157.39C1316,-1157.39 1310,-1151.39 1310,-1145.39"/>
<polyline fill="none" stroke="gray" points="1310,-1145.39 1310,-1095.39 "/>
<path fill="none" stroke="gray" d="M1310,-1095.39C1310,-1089.39 1316,-1083.39 1322,-1083.39"/>
<text text-anchor="middle" x="1354" y="-1143.49" font-family="Times Roman,serif" font-size="11.00" fill="gray">Plugin</text>
</g>
<g id="graph7" class="cluster"><title>cluster_PhlyRestfully\View</title>
<polyline fill="none" stroke="gray" points="1285,-893.386 1423,-893.386 "/>
<path fill="none" stroke="gray" d="M1423,-893.386C1429,-893.386 1435,-899.386 1435,-905.386"/>
<polyline fill="none" stroke="gray" points="1435,-905.386 1435,-1063.39 "/>
<path fill="none" stroke="gray" d="M1435,-1063.39C1435,-1069.39 1429,-1075.39 1423,-1075.39"/>
<polyline fill="none" stroke="gray" points="1423,-1075.39 1285,-1075.39 "/>
<path fill="none" stroke="gray" d="M1285,-1075.39C1279,-1075.39 1273,-1069.39 1273,-1063.39"/>
<polyline fill="none" stroke="gray" points="1273,-1063.39 1273,-905.386 "/>
<path fill="none" stroke="gray" d="M1273,-905.386C1273,-899.386 1279,-893.386 1285,-893.386"/>
<text text-anchor="middle" x="1354" y="-1061.49" font-family="Times Roman,serif" font-size="11.00" fill="gray">View</text>
</g>
<!-- \\PhlyRestfully\\Exception\\UpdateException -->
<g id="node3" class="node"><title>\\PhlyRestfully\\Exception\\UpdateException</title>
<a xlink:href="Exception.UpdateException.html" xlink:title="UpdateException" target="_parent">
<polygon fill="none" stroke="black" points="1413,-1889.39 1295,-1889.39 1295,-1853.39 1413,-1853.39 1413,-1889.39"/>
<text text-anchor="middle" x="1354" y="-1868.49" font-family="Courier,monospace" font-size="11.00">UpdateException</text>
</a>
</g>
<!-- \\PhlyRestfully\\Exception\\DomainException -->
<g id="node5" class="node"><title>\\PhlyRestfully\\Exception\\DomainException</title>
<a xlink:href="Exception.DomainException.html" xlink:title="DomainException" target="_parent">
<polygon fill="none" stroke="black" points="951,-1835.39 833,-1835.39 833,-1799.39 951,-1799.39 951,-1835.39"/>
<text text-anchor="middle" x="892" y="-1814.49" font-family="Courier,monospace" font-size="11.00">DomainException</text>
</a>
</g>
<!-- \\PhlyRestfully\\Exception\\UpdateException&#45;&gt;\\PhlyRestfully\\Exception\\DomainException -->
<g id="edge10" class="edge"><title>\\PhlyRestfully\\Exception\\UpdateException&#45;&gt;\\PhlyRestfully\\Exception\\DomainException</title>
<path fill="none" stroke="black" d="M1294.55,-1864.44C1209.13,-1854.45 1052.02,-1836.09 961.398,-1825.5"/>
<polygon fill="none" stroke="black" points="961.563,-1821.99 951.224,-1824.31 960.75,-1828.95 961.563,-1821.99"/>
</g>
<!-- \\PhlyRestfully\\Exception\\PatchException -->
<g id="node4" class="node"><title>\\PhlyRestfully\\Exception\\PatchException</title>
<a xlink:href="Exception.PatchException.html" xlink:title="PatchException" target="_parent">
<polygon fill="none" stroke="black" points="1409,-1835.39 1299,-1835.39 1299,-1799.39 1409,-1799.39 1409,-1835.39"/>
<text text-anchor="middle" x="1354" y="-1814.49" font-family="Courier,monospace" font-size="11.00">PatchException</text>
</a>
</g>
<!-- \\PhlyRestfully\\Exception\\PatchException&#45;&gt;\\PhlyRestfully\\Exception\\DomainException -->
<g id="edge12" class="edge"><title>\\PhlyRestfully\\Exception\\PatchException&#45;&gt;\\PhlyRestfully\\Exception\\DomainException</title>
<path fill="none" stroke="black" d="M1298.27,-1817.39C1213.72,-1817.39 1053.18,-1817.39 961.249,-1817.39"/>
<polygon fill="none" stroke="black" points="961.207,-1813.89 951.207,-1817.39 961.207,-1820.89 961.207,-1813.89"/>
</g>
<!-- \\PhlyRestfully\\Exception\\ProblemExceptionInterface -->
<g id="node8" class="node"><title>\\PhlyRestfully\\Exception\\ProblemExceptionInterface</title>
<a xlink:href="Exception.ProblemExceptionInterface.html" xlink:title="ProblemExceptionInterface" target="_parent">
<polygon fill="none" stroke="black" points="355,-1835.39 171,-1835.39 171,-1799.39 355,-1799.39 355,-1835.39"/>
<text text-anchor="middle" x="263" y="-1814.49" font-family="Courier,monospace" font-size="11.00">ProblemExceptionInterface</text>
</a>
</g>
<!-- \\PhlyRestfully\\Exception\\DomainException&#45;&gt;\\PhlyRestfully\\Exception\\ProblemExceptionInterface -->
<g id="edge42" class="edge"><title>\\PhlyRestfully\\Exception\\DomainException&#45;&gt;\\PhlyRestfully\\Exception\\ProblemExceptionInterface</title>
<path fill="none" stroke="black" stroke-dasharray="1,5" d="M832.825,-1817.39C725.748,-1817.39 498.644,-1817.39 365.747,-1817.39"/>
<polygon fill="none" stroke="black" points="365.556,-1813.89 355.556,-1817.39 365.556,-1820.89 365.556,-1813.89"/>
</g>
<!-- \\PhlyRestfully\\Exception\\ExceptionInterface -->
<g id="node9" class="node"><title>\\PhlyRestfully\\Exception\\ExceptionInterface</title>
<a xlink:href="Exception.ExceptionInterface.html" xlink:title="ExceptionInterface" target="_parent">
<polygon fill="none" stroke="black" points="332,-1781.39 194,-1781.39 194,-1745.39 332,-1745.39 332,-1781.39"/>
<text text-anchor="middle" x="263" y="-1760.49" font-family="Courier,monospace" font-size="11.00">ExceptionInterface</text>
</a>
</g>
<!-- \\PhlyRestfully\\Exception\\DomainException&#45;&gt;\\PhlyRestfully\\Exception\\ExceptionInterface -->
<g id="edge40" class="edge"><title>\\PhlyRestfully\\Exception\\DomainException&#45;&gt;\\PhlyRestfully\\Exception\\ExceptionInterface</title>
<path fill="none" stroke="black" stroke-dasharray="1,5" d="M832.825,-1812.31C719.23,-1802.55 470.552,-1781.2 342.574,-1770.22"/>
<polygon fill="none" stroke="black" points="342.71,-1766.72 332.447,-1769.35 342.111,-1773.69 342.71,-1766.72"/>
</g>
<!-- \\DomainException -->
<g id="node41" class="node"><title>\\DomainException</title>
<ellipse fill="none" stroke="black" cx="263" cy="-651.386" rx="99.9096" ry="18.3848"/>
<text text-anchor="middle" x="263" y="-647.786" font-family="Times Roman,serif" font-size="14.00" fill="gray">\DomainException</text>
</g>
<!-- \\PhlyRestfully\\Exception\\DomainException&#45;&gt;\\DomainException -->
<g id="edge14" class="edge"><title>\\PhlyRestfully\\Exception\\DomainException&#45;&gt;\\DomainException</title>
<path fill="none" stroke="black" d="M832.907,-1829.76C767.829,-1839.73 663.721,-1844.43 598,-1790.39 506.039,-1714.77 307.2,-847.882 269.308,-679.59"/>
<polygon fill="none" stroke="black" points="272.702,-678.73 267.095,-669.741 265.872,-680.265 272.702,-678.73"/>
</g>
<!-- \\PhlyRestfully\\Exception\\InvalidResourceException -->
<g id="node6" class="node"><title>\\PhlyRestfully\\Exception\\InvalidResourceException</title>
<a xlink:href="Exception.InvalidResourceException.html" xlink:title="InvalidResourceException" target="_parent">
<polygon fill="none" stroke="black" points="1443,-1781.39 1265,-1781.39 1265,-1745.39 1443,-1745.39 1443,-1781.39"/>
<text text-anchor="middle" x="1354" y="-1760.49" font-family="Courier,monospace" font-size="11.00">InvalidResourceException</text>
</a>
</g>
<!-- \\PhlyRestfully\\Exception\\InvalidArgumentException -->
<g id="node7" class="node"><title>\\PhlyRestfully\\Exception\\InvalidArgumentException</title>
<a xlink:href="Exception.InvalidArgumentException.html" xlink:title="InvalidArgumentException" target="_parent">
<polygon fill="none" stroke="black" points="981,-1781.39 803,-1781.39 803,-1745.39 981,-1745.39 981,-1781.39"/>
<text text-anchor="middle" x="892" y="-1760.49" font-family="Courier,monospace" font-size="11.00">InvalidArgumentException</text>
</a>
</g>
<!-- \\PhlyRestfully\\Exception\\InvalidResourceException&#45;&gt;\\PhlyRestfully\\Exception\\InvalidArgumentException -->
<g id="edge16" class="edge"><title>\\PhlyRestfully\\Exception\\InvalidResourceException&#45;&gt;\\PhlyRestfully\\Exception\\InvalidArgumentException</title>
<path fill="none" stroke="black" d="M1264.37,-1763.39C1186.24,-1763.39 1073.04,-1763.39 991.988,-1763.39"/>
<polygon fill="none" stroke="black" points="991.77,-1759.89 981.77,-1763.39 991.77,-1766.89 991.77,-1759.89"/>
</g>
<!-- \\PhlyRestfully\\Exception\\InvalidArgumentException&#45;&gt;\\PhlyRestfully\\Exception\\ExceptionInterface -->
<g id="edge44" class="edge"><title>\\PhlyRestfully\\Exception\\InvalidArgumentException&#45;&gt;\\PhlyRestfully\\Exception\\ExceptionInterface</title>
<path fill="none" stroke="black" stroke-dasharray="1,5" d="M802.214,-1763.39C679.149,-1763.39 459.993,-1763.39 342.543,-1763.39"/>
<polygon fill="none" stroke="black" points="342.193,-1759.89 332.193,-1763.39 342.192,-1766.89 342.193,-1759.89"/>
</g>
<!-- \\InvalidArgumentException -->
<g id="node44" class="node"><title>\\InvalidArgumentException</title>
<ellipse fill="none" stroke="black" cx="263" cy="-597.386" rx="143.043" ry="18.3848"/>
<text text-anchor="middle" x="263" y="-593.786" font-family="Times Roman,serif" font-size="14.00" fill="gray">\InvalidArgumentException</text>
</g>
<!-- \\PhlyRestfully\\Exception\\InvalidArgumentException&#45;&gt;\\InvalidArgumentException -->
<g id="edge18" class="edge"><title>\\PhlyRestfully\\Exception\\InvalidArgumentException&#45;&gt;\\InvalidArgumentException</title>
<path fill="none" stroke="black" d="M811.773,-1781.43C744.88,-1791.27 652.076,-1791.94 598,-1736.39 425.273,-1558.94 697.773,-802.75 526,-624.386 480.928,-577.584 405.284,-574.286 346.66,-580.691"/>
<polygon fill="none" stroke="black" points="346.176,-577.224 336.666,-581.893 347.013,-584.173 346.176,-577.224"/>
</g>
<!-- \\PhlyRestfully\\Exception\\RuntimeException -->
<g id="node10" class="node"><title>\\PhlyRestfully\\Exception\\RuntimeException</title>
<a xlink:href="Exception.RuntimeException.html" xlink:title="RuntimeException" target="_parent">
<polygon fill="none" stroke="black" points="954,-1727.39 830,-1727.39 830,-1691.39 954,-1691.39 954,-1727.39"/>
<text text-anchor="middle" x="892" y="-1706.49" font-family="Courier,monospace" font-size="11.00">RuntimeException</text>
</a>
</g>
<!-- \\PhlyRestfully\\Exception\\RuntimeException&#45;&gt;\\PhlyRestfully\\Exception\\ExceptionInterface -->
<g id="edge46" class="edge"><title>\\PhlyRestfully\\Exception\\RuntimeException&#45;&gt;\\PhlyRestfully\\Exception\\ExceptionInterface</title>
<path fill="none" stroke="black" stroke-dasharray="1,5" d="M829.186,-1714.95C756.286,-1721.39 632.45,-1732.28 526,-1741.39 464.369,-1746.66 394.602,-1752.49 342.418,-1756.82"/>
<polygon fill="none" stroke="black" points="341.9,-1753.35 332.223,-1757.67 342.479,-1760.33 341.9,-1753.35"/>
</g>
<!-- \\RuntimeException -->
<g id="node46" class="node"><title>\\RuntimeException</title>
<ellipse fill="none" stroke="black" cx="263" cy="-543.386" rx="103.238" ry="18.3848"/>
<text text-anchor="middle" x="263" y="-539.786" font-family="Times Roman,serif" font-size="14.00" fill="gray">\RuntimeException</text>
</g>
<!-- \\PhlyRestfully\\Exception\\RuntimeException&#45;&gt;\\RuntimeException -->
<g id="edge20" class="edge"><title>\\PhlyRestfully\\Exception\\RuntimeException&#45;&gt;\\RuntimeException</title>
<path fill="none" stroke="black" d="M829.483,-1725.78C762.37,-1739.2 657.409,-1747.41 598,-1687.39 423.026,-1510.6 698.516,-749.574 526,-570.386 478.452,-520.999 396.862,-520.049 337.138,-527.828"/>
<polygon fill="none" stroke="black" points="336.416,-524.395 327.003,-529.258 337.394,-531.327 336.416,-524.395"/>
</g>
<!-- \\PhlyRestfully\\Exception\\CreationException -->
<g id="node11" class="node"><title>\\PhlyRestfully\\Exception\\CreationException</title>
<a xlink:href="Exception.CreationException.html" xlink:title="CreationException" target="_parent">
<polygon fill="none" stroke="black" points="1419,-1943.39 1289,-1943.39 1289,-1907.39 1419,-1907.39 1419,-1943.39"/>
<text text-anchor="middle" x="1354" y="-1922.49" font-family="Courier,monospace" font-size="11.00">CreationException</text>
</a>
</g>
<!-- \\PhlyRestfully\\Exception\\CreationException&#45;&gt;\\PhlyRestfully\\Exception\\DomainException -->
<g id="edge22" class="edge"><title>\\PhlyRestfully\\Exception\\CreationException&#45;&gt;\\PhlyRestfully\\Exception\\DomainException</title>
<path fill="none" stroke="black" d="M1288.3,-1910.03C1201.58,-1889.76 1049.61,-1854.23 961.183,-1833.56"/>
<polygon fill="none" stroke="black" points="961.785,-1830.1 951.251,-1831.24 960.191,-1836.92 961.785,-1830.1"/>
</g>
<!-- \\PhlyRestfully\\Exception\\InvalidCollectionException -->
<g id="node12" class="node"><title>\\PhlyRestfully\\Exception\\InvalidCollectionException</title>
<a xlink:href="Exception.InvalidCollectionException.html" xlink:title="InvalidCollectionException" target="_parent">
<polygon fill="none" stroke="black" points="1450,-1727.39 1258,-1727.39 1258,-1691.39 1450,-1691.39 1450,-1727.39"/>
<text text-anchor="middle" x="1354" y="-1706.49" font-family="Courier,monospace" font-size="11.00">InvalidCollectionException</text>
</a>
</g>
<!-- \\PhlyRestfully\\Exception\\InvalidCollectionException&#45;&gt;\\PhlyRestfully\\Exception\\InvalidArgumentException -->
<g id="edge24" class="edge"><title>\\PhlyRestfully\\Exception\\InvalidCollectionException&#45;&gt;\\PhlyRestfully\\Exception\\InvalidArgumentException</title>
<path fill="none" stroke="black" d="M1257.77,-1726C1234.33,-1729.73 1209.3,-1733.45 1186,-1736.39 1121.48,-1744.52 1048.69,-1751.23 991.684,-1755.92"/>
<polygon fill="none" stroke="black" points="991.274,-1752.44 981.592,-1756.74 991.843,-1759.42 991.274,-1752.44"/>
</g>
<!-- \\PhlyRestfully\\Factory\\ResourceControllerFactory -->
<g id="node14" class="node"><title>\\PhlyRestfully\\Factory\\ResourceControllerFactory</title>
<a xlink:href="Factory.ResourceControllerFactory.html" xlink:title="ResourceControllerFactory" target="_parent">
<polygon fill="none" stroke="black" points="1446,-1491.39 1262,-1491.39 1262,-1455.39 1446,-1455.39 1446,-1491.39"/>
<text text-anchor="middle" x="1354" y="-1470.49" font-family="Courier,monospace" font-size="11.00">ResourceControllerFactory</text>
</a>
</g>
<!-- \\Zend\\ServiceManager\\AbstractFactoryInterface -->
<g id="node71" class="node"><title>\\Zend\\ServiceManager\\AbstractFactoryInterface</title>
<ellipse fill="none" stroke="black" cx="892" cy="-651.386" rx="253.851" ry="18.3848"/>
<text text-anchor="middle" x="892" y="-647.786" font-family="Times Roman,serif" font-size="14.00" fill="gray">\\Zend\\ServiceManager\\AbstractFactoryInterface</text>
</g>
<!-- \\PhlyRestfully\\Factory\\ResourceControllerFactory&#45;&gt;\\Zend\\ServiceManager\\AbstractFactoryInterface -->
<g id="edge52" class="edge"><title>\\PhlyRestfully\\Factory\\ResourceControllerFactory&#45;&gt;\\Zend\\ServiceManager\\AbstractFactoryInterface</title>
<path fill="none" stroke="black" stroke-dasharray="1,5" d="M1261.13,-1461.04C1257.05,-1458.32 1253.29,-1455.12 1250,-1451.39 1135.33,-1321.22 1309.12,-795.596 1186,-673.386 1130.72,-618.509 1037.26,-621.103 970.556,-632.232"/>
<polygon fill="none" stroke="black" points="969.742,-628.822 960.503,-634.007 970.959,-635.715 969.742,-628.822"/>
</g>
<!-- \\PhlyRestfully\\Listener\\ApiProblemListener -->
<g id="node16" class="node"><title>\\PhlyRestfully\\Listener\\ApiProblemListener</title>
<a xlink:href="Listener.ApiProblemListener.html" xlink:title="ApiProblemListener" target="_parent">
<polygon fill="none" stroke="black" points="1423,-1309.39 1285,-1309.39 1285,-1273.39 1423,-1273.39 1423,-1309.39"/>
<text text-anchor="middle" x="1354" y="-1288.49" font-family="Courier,monospace" font-size="11.00">ApiProblemListener</text>
</a>
</g>
<!-- \\Zend\\EventManager\\ListenerAggregateInterface -->
<g id="node74" class="node"><title>\\Zend\\EventManager\\ListenerAggregateInterface</title>
<ellipse fill="none" stroke="black" cx="892" cy="-597.386" rx="260.215" ry="18.3848"/>
<text text-anchor="middle" x="892" y="-593.786" font-family="Times Roman,serif" font-size="14.00" fill="gray">\\Zend\\EventManager\\ListenerAggregateInterface</text>
</g>
<!-- \\PhlyRestfully\\Listener\\ApiProblemListener&#45;&gt;\\Zend\\EventManager\\ListenerAggregateInterface -->
<g id="edge56" class="edge"><title>\\PhlyRestfully\\Listener\\ApiProblemListener&#45;&gt;\\Zend\\EventManager\\ListenerAggregateInterface</title>
<path fill="none" stroke="black" stroke-dasharray="1,5" d="M1284.93,-1285.83C1271.63,-1281.64 1259.04,-1274.94 1250,-1264.39 1157.02,-1155.83 1287.48,-725.044 1186,-624.386 1133.04,-571.854 1045.28,-570.323 979.407,-578.783"/>
<polygon fill="none" stroke="black" points="978.869,-575.324 969.442,-580.16 979.827,-582.258 978.869,-575.324"/>
</g>
<!-- \\PhlyRestfully\\Listener\\ResourceParametersListener -->
<g id="node17" class="node"><title>\\PhlyRestfully\\Listener\\ResourceParametersListener</title>
<a xlink:href="Listener.ResourceParametersListener.html" xlink:title="ResourceParametersListener" target="_parent">
<polygon fill="none" stroke="black" points="1450,-1255.39 1258,-1255.39 1258,-1219.39 1450,-1219.39 1450,-1255.39"/>
<text text-anchor="middle" x="1354" y="-1234.49" font-family="Courier,monospace" font-size="11.00">ResourceParametersListener</text>
</a>
</g>
<!-- \\PhlyRestfully\\Listener\\ResourceParametersListener&#45;&gt;\\Zend\\EventManager\\ListenerAggregateInterface -->
<g id="edge58" class="edge"><title>\\PhlyRestfully\\Listener\\ResourceParametersListener&#45;&gt;\\Zend\\EventManager\\ListenerAggregateInterface</title>
<path fill="none" stroke="black" stroke-dasharray="1,5" d="M1257.68,-1222.42C1254.93,-1220.32 1252.35,-1217.99 1250,-1215.39 1161.4,-1117.4 1280.17,-717.031 1186,-624.386 1133,-572.243 1045.67,-570.521 979.933,-578.823"/>
<polygon fill="none" stroke="black" points="979.424,-575.36 969.987,-580.175 980.367,-582.296 979.424,-575.36"/>
</g>
<!-- \\Zend\\EventManager\\SharedListenerAggregateInterface -->
<g id="node77" class="node"><title>\\Zend\\EventManager\\SharedListenerAggregateInterface</title>
<ellipse fill="none" stroke="black" cx="892" cy="-543.386" rx="294.156" ry="18.3848"/>
<text text-anchor="middle" x="892" y="-539.786" font-family="Times Roman,serif" font-size="14.00" fill="gray">\\Zend\\EventManager\\SharedListenerAggregateInterface</text>
</g>
<!-- \\PhlyRestfully\\Listener\\ResourceParametersListener&#45;&gt;\\Zend\\EventManager\\SharedListenerAggregateInterface -->
<g id="edge60" class="edge"><title>\\PhlyRestfully\\Listener\\ResourceParametersListener&#45;&gt;\\Zend\\EventManager\\SharedListenerAggregateInterface</title>
<path fill="none" stroke="black" stroke-dasharray="1,5" d="M1257.65,-1222.45C1254.91,-1220.34 1252.34,-1218 1250,-1215.39 1153.88,-1108.11 1288.22,-671.862 1186,-570.386 1133.32,-518.091 1046.16,-516.321 980.389,-524.648"/>
<polygon fill="none" stroke="black" points="979.872,-521.186 970.436,-526.005 980.817,-528.122 979.872,-521.186"/>
</g>
<!-- \\PhlyRestfully\\Plugin\\HalLinks -->
<g id="node19" class="node"><title>\\PhlyRestfully\\Plugin\\HalLinks</title>
<a xlink:href="Plugin.HalLinks.html" xlink:title="HalLinks" target="_parent">
<polygon fill="none" stroke="black" points="1389,-1127.39 1319,-1127.39 1319,-1091.39 1389,-1091.39 1389,-1127.39"/>
<text text-anchor="middle" x="1354" y="-1106.49" font-family="Courier,monospace" font-size="11.00">HalLinks</text>
</a>
</g>
<!-- \\Zend\\EventManager\\EventManagerAwareInterface -->
<g id="node37" class="node"><title>\\Zend\\EventManager\\EventManagerAwareInterface</title>
<ellipse fill="none" stroke="black" cx="263" cy="-489.386" rx="263.044" ry="18.3848"/>
<text text-anchor="middle" x="263" y="-485.786" font-family="Times Roman,serif" font-size="14.00" fill="gray">\Zend\EventManager\EventManagerAwareInterface</text>
</g>
<!-- \\PhlyRestfully\\Plugin\\HalLinks&#45;&gt;\\Zend\\EventManager\\EventManagerAwareInterface -->
<g id="edge64" class="edge"><title>\\PhlyRestfully\\Plugin\\HalLinks&#45;&gt;\\Zend\\EventManager\\EventManagerAwareInterface</title>
<path fill="none" stroke="black" stroke-dasharray="1,5" d="M1318.5,-1108.74C1295.44,-1106.31 1266.68,-1099.12 1250,-1079.39 1168.73,-983.207 1278.69,-601.608 1186,-516.386 1162.12,-494.434 799.477,-489.447 535.981,-488.748"/>
<polygon fill="none" stroke="black" points="535.875,-485.248 525.867,-488.723 535.858,-492.248 535.875,-485.248"/>
</g>
<!-- \\Zend\\View\\Helper\\AbstractHelper -->
<g id="node60" class="node"><title>\\Zend\\View\\Helper\\AbstractHelper</title>
<ellipse fill="none" stroke="black" cx="892" cy="-451.386" rx="178.191" ry="18.3848"/>
<text text-anchor="middle" x="892" y="-447.786" font-family="Times Roman,serif" font-size="14.00" fill="gray">\Zend\View\Helper\AbstractHelper</text>
</g>
<!-- \\PhlyRestfully\\Plugin\\HalLinks&#45;&gt;\\Zend\\View\\Helper\\AbstractHelper -->
<g id="edge36" class="edge"><title>\\PhlyRestfully\\Plugin\\HalLinks&#45;&gt;\\Zend\\View\\Helper\\AbstractHelper</title>
<path fill="none" stroke="black" d="M1318.46,-1108.77C1295.38,-1106.36 1266.62,-1099.17 1250,-1079.39 1164.34,-977.373 1280.12,-577.644 1186,-483.386 1134.26,-431.57 1048.92,-427.556 983.477,-434.165"/>
<polygon fill="none" stroke="black" points="982.705,-430.729 973.153,-435.311 983.478,-437.686 982.705,-430.729"/>
</g>
<!-- \\Zend\\Mvc\\Controller\\Plugin\\PluginInterface -->
<g id="node79" class="node"><title>\\Zend\\Mvc\\Controller\\Plugin\\PluginInterface</title>
<ellipse fill="none" stroke="black" cx="892" cy="-397.386" rx="239.209" ry="18.3848"/>
<text text-anchor="middle" x="892" y="-393.786" font-family="Times Roman,serif" font-size="14.00" fill="gray">\\Zend\\Mvc\\Controller\\Plugin\\PluginInterface</text>
</g>
<!-- \\PhlyRestfully\\Plugin\\HalLinks&#45;&gt;\\Zend\\Mvc\\Controller\\Plugin\\PluginInterface -->
<g id="edge62" class="edge"><title>\\PhlyRestfully\\Plugin\\HalLinks&#45;&gt;\\Zend\\Mvc\\Controller\\Plugin\\PluginInterface</title>
<path fill="none" stroke="black" stroke-dasharray="1,5" d="M1318.4,-1108.82C1295.3,-1106.43 1266.52,-1099.25 1250,-1079.39 1156.49,-966.935 1289.71,-527.498 1186,-424.386 1132.84,-371.536 1044.47,-370.257 978.473,-378.875"/>
<polygon fill="none" stroke="black" points="977.91,-375.42 968.493,-380.275 978.882,-382.352 977.91,-375.42"/>
</g>
<!-- \\PhlyRestfully\\View\\RestfulJsonModel -->
<g id="node21" class="node"><title>\\PhlyRestfully\\View\\RestfulJsonModel</title>
<a xlink:href="View.RestfulJsonModel.html" xlink:title="RestfulJsonModel" target="_parent">
<polygon fill="none" stroke="black" points="1416,-1045.39 1292,-1045.39 1292,-1009.39 1416,-1009.39 1416,-1045.39"/>
<text text-anchor="middle" x="1354" y="-1024.49" font-family="Courier,monospace" font-size="11.00">RestfulJsonModel</text>
</a>
</g>
<!-- \\Zend\\View\\Model\\JsonModel -->
<g id="node50" class="node"><title>\\Zend\\View\\Model\\JsonModel</title>
<ellipse fill="none" stroke="black" cx="892" cy="-343.386" rx="150.113" ry="18.3848"/>
<text text-anchor="middle" x="892" y="-339.786" font-family="Times Roman,serif" font-size="14.00" fill="gray">\Zend\View\Model\JsonModel</text>
</g>
<!-- \\PhlyRestfully\\View\\RestfulJsonModel&#45;&gt;\\Zend\\View\\Model\\JsonModel -->
<g id="edge26" class="edge"><title>\\PhlyRestfully\\View\\RestfulJsonModel&#45;&gt;\\Zend\\View\\Model\\JsonModel</title>
<path fill="none" stroke="black" d="M1291.41,-1023.66C1275.79,-1019.69 1260.51,-1012.63 1250,-1000.39 1158.38,-893.578 1285.98,-469.408 1186,-370.386 1130.92,-315.837 1038.31,-316.317 971.74,-325.844"/>
<polygon fill="none" stroke="black" points="971.059,-322.407 961.701,-327.377 972.115,-329.327 971.059,-322.407"/>
</g>
<!-- \\PhlyRestfully\\View\\RestfulJsonStrategy -->
<g id="node22" class="node"><title>\\PhlyRestfully\\View\\RestfulJsonStrategy</title>
<a xlink:href="View.RestfulJsonStrategy.html" xlink:title="RestfulJsonStrategy" target="_parent">
<polygon fill="none" stroke="black" points="1426,-991.386 1282,-991.386 1282,-955.386 1426,-955.386 1426,-991.386"/>
<text text-anchor="middle" x="1354" y="-970.486" font-family="Courier,monospace" font-size="11.00">RestfulJsonStrategy</text>
</a>
</g>
<!-- \\Zend\\View\\Strategy\\JsonStrategy -->
<g id="node52" class="node"><title>\\Zend\\View\\Strategy\\JsonStrategy</title>
<ellipse fill="none" stroke="black" cx="892" cy="-289.386" rx="178.191" ry="18.3848"/>
<text text-anchor="middle" x="892" y="-285.786" font-family="Times Roman,serif" font-size="14.00" fill="gray">\Zend\View\Strategy\JsonStrategy</text>
</g>
<!-- \\PhlyRestfully\\View\\RestfulJsonStrategy&#45;&gt;\\Zend\\View\\Strategy\\JsonStrategy -->
<g id="edge28" class="edge"><title>\\PhlyRestfully\\View\\RestfulJsonStrategy&#45;&gt;\\Zend\\View\\Strategy\\JsonStrategy</title>
<path fill="none" stroke="black" d="M1281.48,-966.666C1269.47,-962.432 1258.26,-956.014 1250,-946.386 1158.38,-839.578 1285.98,-415.408 1186,-316.386 1131.7,-262.609 1040.93,-262.314 974.581,-271.445"/>
<polygon fill="none" stroke="black" points="973.949,-268.001 964.565,-272.92 974.968,-274.926 973.949,-268.001"/>
</g>
<!-- \\PhlyRestfully\\View\\RestfulJsonRenderer -->
<g id="node23" class="node"><title>\\PhlyRestfully\\View\\RestfulJsonRenderer</title>
<a xlink:href="View.RestfulJsonRenderer.html" xlink:title="RestfulJsonRenderer" target="_parent">
<polygon fill="none" stroke="black" points="1426,-937.386 1282,-937.386 1282,-901.386 1426,-901.386 1426,-937.386"/>
<text text-anchor="middle" x="1354" y="-916.486" font-family="Courier,monospace" font-size="11.00">RestfulJsonRenderer</text>
</a>
</g>
<!-- \\Zend\\View\\Renderer\\JsonRenderer -->
<g id="node54" class="node"><title>\\Zend\\View\\Renderer\\JsonRenderer</title>
<ellipse fill="none" stroke="black" cx="892" cy="-235.386" rx="181.934" ry="18.3848"/>
<text text-anchor="middle" x="892" y="-231.786" font-family="Times Roman,serif" font-size="14.00" fill="gray">\Zend\View\Renderer\JsonRenderer</text>
</g>
<!-- \\PhlyRestfully\\View\\RestfulJsonRenderer&#45;&gt;\\Zend\\View\\Renderer\\JsonRenderer -->
<g id="edge30" class="edge"><title>\\PhlyRestfully\\View\\RestfulJsonRenderer&#45;&gt;\\Zend\\View\\Renderer\\JsonRenderer</title>
<path fill="none" stroke="black" d="M1281.41,-916.248C1269.48,-912.569 1258.32,-906.657 1250,-897.386 1155.27,-791.832 1286.73,-362.226 1186,-262.386 1131.81,-208.674 1041.23,-208.297 974.91,-217.39"/>
<polygon fill="none" stroke="black" points="974.282,-213.945 964.896,-218.86 975.298,-220.871 974.282,-213.945"/>
</g>
<!-- \\PhlyRestfully\\ResourceInterface -->
<g id="node24" class="node"><title>\\PhlyRestfully\\ResourceInterface</title>
<a xlink:href="ResourceInterface.html" xlink:title="ResourceInterface" target="_parent">
<polygon fill="none" stroke="black" points="957,-1659.39 827,-1659.39 827,-1623.39 957,-1623.39 957,-1659.39"/>
<text text-anchor="middle" x="892" y="-1638.49" font-family="Courier,monospace" font-size="11.00">ResourceInterface</text>
</a>
</g>
<!-- \\PhlyRestfully\\ResourceInterface&#45;&gt;\\Zend\\EventManager\\EventManagerAwareInterface -->
<g id="edge8" class="edge"><title>\\PhlyRestfully\\ResourceInterface&#45;&gt;\\Zend\\EventManager\\EventManagerAwareInterface</title>
<path fill="none" stroke="black" d="M826.39,-1650.16C758.409,-1655.17 654.379,-1650.62 598,-1587.39 439.258,-1409.34 691.679,-687.997 526,-516.386 484.197,-473.085 416.216,-467.059 359.843,-471.483"/>
<polygon fill="none" stroke="black" points="359.467,-468.003 349.822,-472.387 360.096,-474.974 359.467,-468.003"/>
</g>
<!-- \\PhlyRestfully\\ApiProblem -->
<g id="node25" class="node"><title>\\PhlyRestfully\\ApiProblem</title>
<a xlink:href="ApiProblem.html" xlink:title="ApiProblem" target="_parent">
<polygon fill="none" stroke="black" points="1396,-1437.39 1312,-1437.39 1312,-1401.39 1396,-1401.39 1396,-1437.39"/>
<text text-anchor="middle" x="1354" y="-1416.49" font-family="Courier,monospace" font-size="11.00">ApiProblem</text>
</a>
</g>
<!-- \\PhlyRestfully\\MetadataMap -->
<g id="node26" class="node"><title>\\PhlyRestfully\\MetadataMap</title>
<a xlink:href="MetadataMap.html" xlink:title="MetadataMap" target="_parent">
<polygon fill="none" stroke="black" points="1399,-1383.39 1309,-1383.39 1309,-1347.39 1399,-1347.39 1399,-1383.39"/>
<text text-anchor="middle" x="1354" y="-1362.49" font-family="Courier,monospace" font-size="11.00">MetadataMap</text>
</a>
</g>
<!-- \\PhlyRestfully\\Resource -->
<g id="node27" class="node"><title>\\PhlyRestfully\\Resource</title>
<a xlink:href="Resource.html" xlink:title="Resource" target="_parent">
<polygon fill="none" stroke="black" points="1389,-1673.39 1319,-1673.39 1319,-1637.39 1389,-1637.39 1389,-1673.39"/>
<text text-anchor="middle" x="1354" y="-1652.49" font-family="Courier,monospace" font-size="11.00">Resource</text>
</a>
</g>
<!-- \\PhlyRestfully\\Resource&#45;&gt;\\PhlyRestfully\\ResourceInterface -->
<g id="edge38" class="edge"><title>\\PhlyRestfully\\Resource&#45;&gt;\\PhlyRestfully\\ResourceInterface</title>
<path fill="none" stroke="black" stroke-dasharray="1,5" d="M1318.13,-1654.3C1243.22,-1652.03 1068.73,-1646.74 967.799,-1643.68"/>
<polygon fill="none" stroke="black" points="967.768,-1640.18 957.667,-1643.38 967.556,-1647.18 967.768,-1640.18"/>
</g>
<!-- \\PhlyRestfully\\Metadata -->
<g id="node28" class="node"><title>\\PhlyRestfully\\Metadata</title>
<a xlink:href="Metadata.html" xlink:title="Metadata" target="_parent">
<polygon fill="none" stroke="black" points="1389,-1201.39 1319,-1201.39 1319,-1165.39 1389,-1165.39 1389,-1201.39"/>
<text text-anchor="middle" x="1354" y="-1180.49" font-family="Courier,monospace" font-size="11.00">Metadata</text>
</a>
</g>
<!-- \\PhlyRestfully\\LinkCollection -->
<g id="node29" class="node"><title>\\PhlyRestfully\\LinkCollection</title>
<a xlink:href="LinkCollection.html" xlink:title="LinkCollection" target="_parent">
<polygon fill="none" stroke="black" points="1409,-883.386 1299,-883.386 1299,-847.386 1409,-847.386 1409,-883.386"/>
<text text-anchor="middle" x="1354" y="-862.486" font-family="Courier,monospace" font-size="11.00">LinkCollection</text>
</a>
</g>
<!-- \\Countable -->
<g id="node67" class="node"><title>\\Countable</title>
<ellipse fill="none" stroke="black" cx="892" cy="-181.386" rx="67.8823" ry="18.3848"/>
<text text-anchor="middle" x="892" y="-177.786" font-family="Times Roman,serif" font-size="14.00" fill="gray">\\Countable</text>
</g>
<!-- \\PhlyRestfully\\LinkCollection&#45;&gt;\\Countable -->
<g id="edge48" class="edge"><title>\\PhlyRestfully\\LinkCollection&#45;&gt;\\Countable</title>
<path fill="none" stroke="black" stroke-dasharray="1,5" d="M1298.47,-863.246C1280.49,-859.689 1262.08,-852.473 1250,-838.386 1158.38,-731.578 1285.98,-307.408 1186,-208.386 1125.12,-148.091 1018.38,-155.028 951.641,-167.103"/>
<polygon fill="none" stroke="black" points="950.86,-163.688 941.69,-168.994 952.168,-170.565 950.86,-163.688"/>
</g>
<!-- \\IteratorAggregate -->
<g id="node69" class="node"><title>\\IteratorAggregate</title>
<ellipse fill="none" stroke="black" cx="892" cy="-127.386" rx="106.066" ry="18.3848"/>
<text text-anchor="middle" x="892" y="-123.786" font-family="Times Roman,serif" font-size="14.00" fill="gray">\\IteratorAggregate</text>
</g>
<!-- \\PhlyRestfully\\LinkCollection&#45;&gt;\\IteratorAggregate -->
<g id="edge50" class="edge"><title>\\PhlyRestfully\\LinkCollection&#45;&gt;\\IteratorAggregate</title>
<path fill="none" stroke="black" stroke-dasharray="1,5" d="M1298.41,-863.3C1280.42,-859.748 1262.03,-852.521 1250,-838.386 1151.06,-722.119 1294.04,-262.243 1186,-154.386 1128.81,-97.294 1030.56,-100.282 963.507,-111.002"/>
<polygon fill="none" stroke="black" points="962.713,-107.587 953.437,-112.707 963.881,-114.488 962.713,-107.587"/>
</g>
<!-- \\PhlyRestfully\\HalCollection -->
<g id="node30" class="node"><title>\\PhlyRestfully\\HalCollection</title>
<a xlink:href="HalCollection.html" xlink:title="HalCollection" target="_parent">
<polygon fill="none" stroke="black" points="1406,-1565.39 1302,-1565.39 1302,-1529.39 1406,-1529.39 1406,-1565.39"/>
<text text-anchor="middle" x="1354" y="-1544.49" font-family="Courier,monospace" font-size="11.00">HalCollection</text>
</a>
</g>
<!-- \\PhlyRestfully\\LinkCollectionAwareInterface -->
<g id="node35" class="node"><title>\\PhlyRestfully\\LinkCollectionAwareInterface</title>
<a xlink:href="LinkCollectionAwareInterface.html" xlink:title="LinkCollectionAwareInterface" target="_parent">
<polygon fill="none" stroke="black" points="995,-1578.39 789,-1578.39 789,-1542.39 995,-1542.39 995,-1578.39"/>
<text text-anchor="middle" x="892" y="-1557.49" font-family="Courier,monospace" font-size="11.00">LinkCollectionAwareInterface</text>
</a>
</g>
<!-- \\PhlyRestfully\\HalCollection&#45;&gt;\\PhlyRestfully\\LinkCollectionAwareInterface -->
<g id="edge54" class="edge"><title>\\PhlyRestfully\\HalCollection&#45;&gt;\\PhlyRestfully\\LinkCollectionAwareInterface</title>
<path fill="none" stroke="black" stroke-dasharray="1,5" d="M1301.9,-1548.85C1230.41,-1550.86 1100,-1554.53 1005.44,-1557.19"/>
<polygon fill="none" stroke="black" points="1005.14,-1553.7 995.246,-1557.48 1005.34,-1560.7 1005.14,-1553.7"/>
</g>
<!-- \\PhlyRestfully\\ResourceController -->
<g id="node31" class="node"><title>\\PhlyRestfully\\ResourceController</title>
<a xlink:href="ResourceController.html" xlink:title="ResourceController" target="_parent">
<polygon fill="none" stroke="black" points="1423,-775.386 1285,-775.386 1285,-739.386 1423,-739.386 1423,-775.386"/>
<text text-anchor="middle" x="1354" y="-754.486" font-family="Courier,monospace" font-size="11.00">ResourceController</text>
</a>
</g>
<!-- \\Zend\\Mvc\\Controller\\AbstractRestfulController -->
<g id="node56" class="node"><title>\\Zend\\Mvc\\Controller\\AbstractRestfulController</title>
<ellipse fill="none" stroke="black" cx="892" cy="-73.3857" rx="239.209" ry="18.3848"/>
<text text-anchor="middle" x="892" y="-69.7857" font-family="Times Roman,serif" font-size="14.00" fill="gray">\Zend\Mvc\Controller\AbstractRestfulController</text>
</g>
<!-- \\PhlyRestfully\\ResourceController&#45;&gt;\\Zend\\Mvc\\Controller\\AbstractRestfulController -->
<g id="edge32" class="edge"><title>\\PhlyRestfully\\ResourceController&#45;&gt;\\Zend\\Mvc\\Controller\\AbstractRestfulController</title>
<path fill="none" stroke="black" d="M1284.94,-751.821C1271.64,-747.629 1259.05,-740.934 1250,-730.386 1158.38,-623.578 1285.98,-199.408 1186,-100.386 1132.74,-47.6385 1044.39,-46.3449 978.417,-54.9316"/>
<polygon fill="none" stroke="black" points="977.861,-51.4752 968.442,-56.3264 978.83,-58.4078 977.861,-51.4752"/>
</g>
<!-- \\PhlyRestfully\\Link -->
<g id="node32" class="node"><title>\\PhlyRestfully\\Link</title>
<a xlink:href="Link.html" xlink:title="Link" target="_parent">
<polygon fill="none" stroke="black" points="1381,-829.386 1327,-829.386 1327,-793.386 1381,-793.386 1381,-829.386"/>
<text text-anchor="middle" x="1354" y="-808.486" font-family="Courier,monospace" font-size="11.00">Link</text>
</a>
</g>
<!-- \\PhlyRestfully\\ResourceEvent -->
<g id="node33" class="node"><title>\\PhlyRestfully\\ResourceEvent</title>
<a xlink:href="ResourceEvent.html" xlink:title="ResourceEvent" target="_parent">
<polygon fill="none" stroke="black" points="1406,-721.386 1302,-721.386 1302,-685.386 1406,-685.386 1406,-721.386"/>
<text text-anchor="middle" x="1354" y="-700.486" font-family="Courier,monospace" font-size="11.00">ResourceEvent</text>
</a>
</g>
<!-- \\Zend\\EventManager\\Event -->
<g id="node58" class="node"><title>\\Zend\\EventManager\\Event</title>
<ellipse fill="none" stroke="black" cx="892" cy="-19.3857" rx="145.163" ry="18.3848"/>
<text text-anchor="middle" x="892" y="-15.7857" font-family="Times Roman,serif" font-size="14.00" fill="gray">\Zend\EventManager\Event</text>
</g>
<!-- \\PhlyRestfully\\ResourceEvent&#45;&gt;\\Zend\\EventManager\\Event -->
<g id="edge34" class="edge"><title>\\PhlyRestfully\\ResourceEvent&#45;&gt;\\Zend\\EventManager\\Event</title>
<path fill="none" stroke="black" d="M1352.14,-685.291C1341.84,-588.564 1288.36,-133.656 1186,-46.3857 1129.82,1.51694 1043.78,4.06085 979.271,-2.87578"/>
<polygon fill="none" stroke="black" points="978.636,0.573857 969.11,-4.06497 979.449,-6.37869 978.636,0.573857"/>
</g>
<!-- \\PhlyRestfully\\HalResource -->
<g id="node34" class="node"><title>\\PhlyRestfully\\HalResource</title>
<a xlink:href="HalResource.html" xlink:title="HalResource" target="_parent">
<polygon fill="none" stroke="black" points="1399,-1619.39 1309,-1619.39 1309,-1583.39 1399,-1583.39 1399,-1619.39"/>
<text text-anchor="middle" x="1354" y="-1598.49" font-family="Courier,monospace" font-size="11.00">HalResource</text>
</a>
</g>
<!-- \\PhlyRestfully\\HalResource&#45;&gt;\\PhlyRestfully\\LinkCollectionAwareInterface -->
<g id="edge66" class="edge"><title>\\PhlyRestfully\\HalResource&#45;&gt;\\PhlyRestfully\\LinkCollectionAwareInterface</title>
<path fill="none" stroke="black" stroke-dasharray="1,5" d="M1308.44,-1597.34C1238.63,-1591.15 1103.06,-1579.12 1005.54,-1570.46"/>
<polygon fill="none" stroke="black" points="1005.61,-1566.95 995.339,-1569.56 1004.99,-1573.93 1005.61,-1566.95"/>
</g>
</g>
</svg>
